<?xml version="1.0" encoding="UTF-8" standalone="no"?>
<svg width="24px" height="24px" viewBox="0 0 24 24" version="1.1" xmlns="http://www.w3.org/2000/svg" xmlns:xlink="http://www.w3.org/1999/xlink">
    <!-- Generator: Sketch 41.2 (35397) - http://www.bohemiancoding.com/sketch -->
    <title>Buld</title>
    <desc>Created with Sketch.</desc>
    <defs></defs>
    <g id="Symbols" stroke="none" stroke-width="1" fill="none" fill-rule="evenodd">
        <g id="Buld">
            <rect id="Rectangle-7" x="0" y="0" width="24" height="24"></rect>
            <path d="M12,2 C8.13400675,2 5,5.13400675 5,9 C5,11.38 6.19,13.47 8,14.74 L8,17 C8,17.5522847 8.44771525,18 9,18 L15,18 C15.5522847,18 16,17.5522847 16,17 L16,14.74 C17.81,13.47 19,11.38 19,9 C19,5.13400675 15.8659932,2 12,2 L12,2 Z M9,21 C9,21.5522847 9.44771525,22 10,22 L14,22 C14.5522847,22 15,21.5522847 15,21 L15,20 L9,20 L9,21 Z" id="Shape" fill="#4990E2"></path>
        </g>
    </g>
</svg>