<?xml version="1.0" encoding="UTF-8" standalone="no"?>
<svg width="18px" height="18px" viewBox="0 0 18 18" version="1.1" xmlns="http://www.w3.org/2000/svg" xmlns:xlink="http://www.w3.org/1999/xlink">
    <!-- Generator: Sketch 39.1 (31720) - http://www.bohemiancoding.com/sketch -->
    <title>Artboard 2</title>
    <desc>Created with Sketch.</desc>
    <defs></defs>
    <g id="077.12-Alpha-2---Quick-Setup" stroke="none" stroke-width="1" fill="none" fill-rule="evenodd">
        <g id="Artboard-2">
            <g id="ic_lorry">
                <rect id="Rectangle-615" x="0" y="0" width="18" height="18"></rect>
                <path d="M7.35714286,12.9285714 C7.35714286,12.6383914 7.25111713,12.3872778 7.0390625,12.1752232 C6.82700787,11.9631686 6.57589431,11.8571429 6.28571429,11.8571429 C5.99553426,11.8571429 5.7444207,11.9631686 5.53236607,12.1752232 C5.32031144,12.3872778 5.21428571,12.6383914 5.21428571,12.9285714 C5.21428571,13.2187515 5.32031144,13.469865 5.53236607,13.6819196 C5.7444207,13.8939743 5.99553426,14 6.28571429,14 C6.57589431,14 6.82700787,13.8939743 7.0390625,13.6819196 C7.25111713,13.469865 7.35714286,13.2187515 7.35714286,12.9285714 L7.35714286,12.9285714 Z M4.14285714,8.64285714 L7.35714286,8.64285714 L7.35714286,6.5 L6.03459821,6.5 C5.96205321,6.5 5.90066989,6.52511136 5.85044643,6.57533482 L4.21819196,8.20758929 C4.1679685,8.25781275 4.14285714,8.31919607 4.14285714,8.39174107 L4.14285714,8.64285714 Z M14.8571429,12.9285714 C14.8571429,12.6383914 14.7511171,12.3872778 14.5390625,12.1752232 C14.3270079,11.9631686 14.0758943,11.8571429 13.7857143,11.8571429 C13.4955343,11.8571429 13.2444207,11.9631686 13.0323661,12.1752232 C12.8203114,12.3872778 12.7142857,12.6383914 12.7142857,12.9285714 C12.7142857,13.2187515 12.8203114,13.469865 13.0323661,13.6819196 C13.2444207,13.8939743 13.4955343,14 13.7857143,14 C14.0758943,14 14.3270079,13.8939743 14.5390625,13.6819196 C14.7511171,13.469865 14.8571429,13.2187515 14.8571429,12.9285714 L14.8571429,12.9285714 Z M17,3.82142857 L17,12.3928571 C17,12.4765629 16.9888394,12.5505019 16.9665179,12.6146763 C16.9441963,12.6788508 16.9065293,12.7304686 16.8535156,12.7695312 C16.800502,12.8085939 16.7544645,12.8406807 16.7154018,12.8657924 C16.6763391,12.8909041 16.6107705,12.907645 16.5186942,12.9160156 C16.4266178,12.9243862 16.3638395,12.9299665 16.3303571,12.9327567 C16.2968748,12.9355469 16.225726,12.9355469 16.1169085,12.9327567 C16.008091,12.9299665 15.9453126,12.9285714 15.9285714,12.9285714 C15.9285714,13.5200922 15.7193101,14.0251095 15.3007812,14.4436384 C14.8822524,14.8621673 14.3772351,15.0714286 13.7857143,15.0714286 C13.1941935,15.0714286 12.6891762,14.8621673 12.2706473,14.4436384 C11.8521184,14.0251095 11.6428571,13.5200922 11.6428571,12.9285714 L8.42857143,12.9285714 C8.42857143,13.5200922 8.21931013,14.0251095 7.80078125,14.4436384 C7.38225237,14.8621673 6.8772351,15.0714286 6.28571429,15.0714286 C5.69419347,15.0714286 5.1891762,14.8621673 4.77064732,14.4436384 C4.35211844,14.0251095 4.14285714,13.5200922 4.14285714,12.9285714 L3.60714286,12.9285714 C3.5904017,12.9285714 3.52762331,12.9299665 3.4188058,12.9327567 C3.3099883,12.9355469 3.23883945,12.9355469 3.20535714,12.9327567 C3.17187483,12.9299665 3.10909644,12.9243862 3.01702009,12.9160156 C2.92494374,12.907645 2.8593752,12.8909041 2.8203125,12.8657924 C2.7812498,12.8406807 2.73521232,12.8085939 2.68219866,12.7695312 C2.629185,12.7304686 2.59151797,12.6788508 2.56919643,12.6146763 C2.54687489,12.5505019 2.53571429,12.4765629 2.53571429,12.3928571 C2.53571429,12.2477671 2.58872715,12.1222104 2.69475446,12.016183 C2.80078178,11.9101557 2.92633856,11.8571429 3.07142857,11.8571429 L3.07142857,9.17857143 C3.07142857,9.13392835 3.0700335,9.03627307 3.0672433,8.88560268 C3.06445311,8.73493228 3.06445311,8.62890656 3.0672433,8.56752232 C3.0700335,8.50613809 3.07700887,8.40987789 3.08816964,8.27873884 C3.09933041,8.14759979 3.11746639,8.04436422 3.14257812,7.96902902 C3.16768986,7.89369382 3.20675197,7.80859422 3.25976562,7.71372768 C3.31277928,7.61886113 3.37555767,7.53515661 3.44810268,7.46261161 L5.10546875,5.80524554 C5.21149607,5.69921822 5.35239867,5.6099334 5.5281808,5.53738839 C5.70396293,5.46484339 5.86718675,5.42857143 6.01785714,5.42857143 L7.35714286,5.42857143 L7.35714286,3.82142857 C7.35714286,3.67633856 7.41015572,3.55078178 7.51618304,3.44475446 C7.62221035,3.33872715 7.74776713,3.28571429 7.89285714,3.28571429 L16.4642857,3.28571429 C16.6093757,3.28571429 16.7349325,3.33872715 16.8409598,3.44475446 C16.9469871,3.55078178 17,3.67633856 17,3.82142857 L17,3.82142857 Z" id="Shape" fill="#6D6E71" transform="translate(9.767857, 9.178571) scale(-1, 1) translate(-9.767857, -9.178571) "></path>
            </g>
        </g>
    </g>
</svg>