<?xml version="1.0" encoding="UTF-8" standalone="no"?>
<svg width="12px" height="12px" viewBox="0 0 12 12" version="1.1" xmlns="http://www.w3.org/2000/svg" xmlns:xlink="http://www.w3.org/1999/xlink">
    <!-- Generator: sketchtool 41.2 (35397) - http://www.bohemiancoding.com/sketch -->
    <title>C6002B87-4E8F-4D9B-839E-6BBE0D0AB8B5</title>
    <desc>Created with sketchtool.</desc>
    <defs></defs>
    <g id="Alpha-4---Policy" stroke="none" stroke-width="1" fill="none" fill-rule="evenodd">
        <g id="077.12-A4-Policy---ACL---Detail---Table" transform="translate(-35.000000, -158.000000)">
            <g id="-g-ic_more_horiz_black_24px-(1)-copy-3" transform="translate(32.000000, 155.000000)">
                <g id="Group"></g>
                <polygon id="Shape" points="0 0 18 0 18 18 0 18"></polygon>
                <path d="M4.5,7.5 C3.675,7.5 3,8.175 3,9 C3,9.825 3.675,10.5 4.5,10.5 C5.325,10.5 6,9.825 6,9 C6,8.175 5.325,7.5 4.5,7.5 L4.5,7.5 Z M13.5,7.5 C12.675,7.5 12,8.175 12,9 C12,9.825 12.675,10.5 13.5,10.5 C14.325,10.5 15,9.825 15,9 C15,8.175 14.325,7.5 13.5,7.5 L13.5,7.5 Z M9,7.5 C8.175,7.5 7.5,8.175 7.5,9 C7.5,9.825 8.175,10.5 9,10.5 C9.825,10.5 10.5,9.825 10.5,9 C10.5,8.175 9.825,7.5 9,7.5 L9,7.5 Z" id="Shape" fill="#6D6E71"></path>
                <path d="M4.5,12 C3.675,12 3,12.675 3,13.5 C3,14.325 3.675,15 4.5,15 C5.325,15 6,14.325 6,13.5 C6,12.675 5.325,12 4.5,12 L4.5,12 Z M13.5,12 C12.675,12 12,12.675 12,13.5 C12,14.325 12.675,15 13.5,15 C14.325,15 15,14.325 15,13.5 C15,12.675 14.325,12 13.5,12 L13.5,12 Z M9,12 C8.175,12 7.5,12.675 7.5,13.5 C7.5,14.325 8.175,15 9,15 C9.825,15 10.5,14.325 10.5,13.5 C10.5,12.675 9.825,12 9,12 L9,12 Z" id="Shape-Copy-2" fill="#6D6E71"></path>
                <path d="M4.5,3 C3.675,3 3,3.675 3,4.5 C3,5.325 3.675,6 4.5,6 C5.325,6 6,5.325 6,4.5 C6,3.675 5.325,3 4.5,3 L4.5,3 Z M13.5,3 C12.675,3 12,3.675 12,4.5 C12,5.325 12.675,6 13.5,6 C14.325,6 15,5.325 15,4.5 C15,3.675 14.325,3 13.5,3 L13.5,3 Z M9,3 C8.175,3 7.5,3.675 7.5,4.5 C7.5,5.325 8.175,6 9,6 C9.825,6 10.5,5.325 10.5,4.5 C10.5,3.675 9.825,3 9,3 L9,3 Z" id="Shape-Copy" fill="#6D6E71"></path>
            </g>
        </g>
    </g>
</svg>