<?xml version="1.0" encoding="UTF-8" standalone="no"?>
<svg width="18px" height="18px" viewBox="0 0 18 18" version="1.1" xmlns="http://www.w3.org/2000/svg" xmlns:xlink="http://www.w3.org/1999/xlink">
    <!-- Generator: Sketch 41.2 (35397) - http://www.bohemiancoding.com/sketch -->
    <title>os</title>
    <desc>Created with Sketch.</desc>
    <defs></defs>
    <g id="Symbols" stroke="none" stroke-width="1" fill="none" fill-rule="evenodd">
        <g id="os">
            <g id="Group-35">
                <rect id="Rectangle-4" x="0" y="0" width="18" height="18"></rect>
                <path d="M17,6.2 L17,4 L12.0769231,4 C10.7174529,4 9.61538462,4.98497355 9.61538462,6.2 L9.61538462,8.4 C9.61538462,9.61502645 10.7174529,10.6 12.0769231,10.6 L14.5384615,10.6 L14.5384615,12.8 L9.61538462,12.8 L9.61538462,15 L14.5384615,15 C15.8979317,15 17,14.0150264 17,12.8 L17,10.6 C17,9.38497355 15.8979317,8.4 14.5384615,8.4 L12.0769231,8.4 L12.0769231,6.2 L17,6.2 Z M5.92307692,12.8 L3.46153846,12.8 L3.46153846,6.2 L5.92307692,6.2 L5.92307692,12.8 Z M5.92307692,4 L3.46153846,4 C2.10206831,4 1,4.98497355 1,6.2 L1,12.8 C1,14.0150264 2.10206831,15 3.46153846,15 L5.92307692,15 C7.28254708,15 8.38461538,14.0150264 8.38461538,12.8 L8.38461538,6.2 C8.38461538,4.98497355 7.28254708,4 5.92307692,4 L5.92307692,4 Z" id="Shape" fill="#6D6E71"></path>
            </g>
        </g>
    </g>
</svg>