<?xml version="1.0" encoding="UTF-8" standalone="no"?>
<svg width="18px" height="18px" viewBox="0 0 18 18" version="1.1" xmlns="http://www.w3.org/2000/svg" xmlns:xlink="http://www.w3.org/1999/xlink">
    <!-- Generator: sketchtool 41.2 (35397) - http://www.bohemiancoding.com/sketch -->
    <title>C5E81DD5-269B-4F4C-94CD-A09BFA5AC260</title>
    <desc>Created with sketchtool.</desc>
    <defs></defs>
    <g id="Alpha-4---Analysis" stroke="none" stroke-width="1" fill="none" fill-rule="evenodd" opacity="1">
        <g id="077.12-A4-Analysis-1.2" transform="translate(-1036.000000, -95.000000)">
            <g id="-g-Group-28" transform="translate(1033.000000, 92.000000)">
                <rect id="Rectangle-4" x="0" y="0" width="24" height="24"></rect>
                <path d="M4,3 L5,3 L5,5 L3,5 L3,4 C3,3.44771525 3.44771525,3 4,3 L4,3 Z M20,3 C20.5522847,3 21,3.44771525 21,4 L21,5 L19,5 L19,3 L20,3 L20,3 Z M15,5 L15,3 L17,3 L17,5 L15,5 L15,5 Z M11,5 L11,3 L13,3 L13,5 L11,5 L11,5 Z M7,5 L7,3 L9,3 L9,5 L7,5 L7,5 Z M21,20 C21,20.5522847 20.5522847,21 20,21 L19,21 L19,19 L21,19 L21,20 L21,20 Z M15,21 L15,19 L17,19 L17,21 L15,21 L15,21 Z M11,21 L11,19 L13,19 L13,21 L11,21 L11,21 Z M7,21 L7,19 L9,19 L9,21 L7,21 L7,21 Z M4,21 C3.44771525,21 3,20.5522847 3,20 L3,19 L5,19 L5,21 L4,21 L4,21 Z M3,15 L5,15 L5,17 L3,17 L3,15 L3,15 Z M21,15 L21,17 L19,17 L19,15 L21,15 L21,15 Z M3,11 L5,11 L5,13 L3,13 L3,11 L3,11 Z M21,11 L21,13 L19,13 L19,11 L21,11 L21,11 Z M3,7 L5,7 L5,9 L3,9 L3,7 L3,7 Z M21,7 L21,9 L19,9 L19,7 L21,7 Z" id="Shape" fill="#6d6e71"></path>
            </g>
        </g>
    </g>
</svg>