<?xml version="1.0" encoding="UTF-8" standalone="no"?>
<svg width="16px" height="16px" viewBox="0 0 16 16" version="1.1" xmlns="http://www.w3.org/2000/svg" xmlns:xlink="http://www.w3.org/1999/xlink">
    <!-- Generator: sketchtool 41.2 (35397) - http://www.bohemiancoding.com/sketch -->
    <title>AD6EBEB3-FD09-4656-8A6A-7E361EBC45A6</title>
    <desc>Created with sketchtool.</desc>
    <defs></defs>
    <g id="Alpha-4---Analysis" stroke="none" stroke-width="1" fill="none" fill-rule="evenodd" opacity="0.600000024">
        <g id="077.12-A4-Analysis-1.7" transform="translate(-834.000000, -93.000000)">
            <g id="-g-Group-8" transform="translate(833.000000, 92.000000)">
                <rect id="Rectangle-3" x="0" y="0" width="18" height="18"></rect>
                <path d="M4.125,5.25 C3.50367966,5.25 3,4.74632034 3,4.125 C3,3.50367966 3.50367966,3 4.125,3 C4.74632034,3 5.25,3.50367966 5.25,4.125 C5.25,4.74632034 4.74632034,5.25 4.125,5.25 L4.125,5.25 Z M16.0575,8.685 L9.3075,1.935 C9.0375,1.665 8.6625,1.5 8.25,1.5 L3,1.5 C2.1675,1.5 1.5,2.1675 1.5,3 L1.5,8.25 C1.5,8.6625 1.665,9.0375 1.9425,9.3075 L8.685,16.0575 C8.9625,16.3275 9.3375,16.5 9.75,16.5 C10.1625,16.5 10.5375,16.3275 10.8075,16.0575 L16.0575,10.8075 C16.335,10.5375 16.5,10.1625 16.5,9.75 C16.5,9.33 16.3275,8.955 16.0575,8.685 Z" id="Shape" fill="#FFFFFF"></path>
            </g>
        </g>
    </g>
</svg>