<?xml version="1.0" encoding="UTF-8" standalone="no"?>
<svg width="14px" height="12px" viewBox="0 0 14 12" version="1.1" xmlns="http://www.w3.org/2000/svg" xmlns:xlink="http://www.w3.org/1999/xlink">
    <!-- Generator: sketchtool 41.2 (35397) - http://www.bohemiancoding.com/sketch -->
    <title>CF4A571E-D9CE-4E0D-A311-3DEF05F896E3</title>
    <desc>Created with sketchtool.</desc>
    <defs></defs>
    <g id="Alpha-4---Analysis" stroke="none" stroke-width="1" fill="none" fill-rule="evenodd" opacity="0.600000024">
        <g id="077.12-A4-Analysis-1.7" transform="translate(-957.000000, -95.000000)">
            <g id="-g-table" transform="translate(955.000000, 92.000000)">
                <rect id="Rectangle-5" x="0" y="0" width="18" height="18"></rect>
                <path d="M3.75,3 L14.25,3 C15.0784271,3 15.75,3.67157288 15.75,4.5 L15.75,13.5 C15.75,14.3284271 15.0784271,15 14.25,15 L3.75,15 C2.92157288,15 2.25,14.3284271 2.25,13.5 L2.25,4.5 C2.25,3.67157288 2.92157288,3 3.75,3 L3.75,3 Z M3.75,6 L3.75,9 L8.25,9 L8.25,6 L3.75,6 L3.75,6 Z M9.75,6 L9.75,9 L14.25,9 L14.25,6 L9.75,6 L9.75,6 Z M3.75,10.5 L3.75,13.5 L8.25,13.5 L8.25,10.5 L3.75,10.5 L3.75,10.5 Z M9.75,10.5 L9.75,13.5 L14.25,13.5 L14.25,10.5 L9.75,10.5 Z" id="Shape" fill="#FFFFFF"></path>
            </g>
        </g>
    </g>
</svg>